<?xml version="1.0" encoding="UTF-8" ?>
<!DOCTYPE svg PUBLIC "-//W3C//DTD SVG 1.1//EN" "http://www.w3.org/Graphics/SVG/1.1/DTD/svg11.dtd">
<svg width="383pt" height="485pt" viewBox="0 0 383 485" version="1.1" xmlns="http://www.w3.org/2000/svg">
<g id="#f6f6f6ff">
<path fill="#f6f6f6" opacity="1.00" d=" M 101.40 174.18 C 129.61 174.41 157.81 174.18 186.02 174.30 C 188.12 174.32 190.22 174.09 192.32 173.89 C 220.22 173.56 248.13 173.90 276.04 173.72 C 278.57 173.64 281.08 173.96 283.56 174.47 C 282.00 182.58 282.14 190.90 281.05 199.08 C 276.71 248.39 272.37 297.71 267.91 347.02 C 267.52 351.07 267.42 355.16 266.54 359.15 C 241.71 365.59 217.13 373.05 192.33 379.59 C 171.87 373.98 151.46 368.16 131.02 362.46 C 126.82 361.40 122.73 359.88 118.44 359.23 C 116.74 350.94 116.80 342.37 115.70 333.97 C 115.05 323.23 113.37 312.57 113.25 301.80 C 125.31 301.82 137.36 301.80 149.42 301.81 C 150.06 309.21 150.67 316.61 151.44 324.00 C 151.56 326.40 151.56 328.86 152.55 331.11 C 165.17 334.02 177.63 337.67 190.08 341.24 C 191.74 341.67 193.45 341.41 195.05 340.90 C 207.52 337.34 220.09 334.17 232.54 330.56 C 234.10 314.96 235.72 299.33 236.60 283.68 C 221.75 283.66 206.90 283.74 192.04 283.64 C 178.82 283.58 165.59 283.64 152.37 283.61 C 151.24 271.58 149.89 259.56 149.23 247.49 C 178.16 247.63 207.09 247.17 236.02 247.37 C 237.43 247.20 239.27 247.76 240.19 246.33 C 241.32 234.42 242.06 222.46 243.51 210.57 C 198.67 210.41 153.82 210.39 108.98 210.45 C 107.50 210.30 105.62 210.77 104.68 209.28 C 104.43 202.03 103.68 194.81 102.95 187.59 C 102.21 183.14 102.89 178.50 101.40 174.18 Z" />
</g>
<g id="#121212ff">
<path fill="#121212" opacity="1.00" d=" M 109.35 91.41 C 109.13 72.84 109.24 54.27 109.29 35.71 C 124.03 35.75 138.77 35.72 153.51 35.73 C 153.55 41.03 153.52 46.34 153.53 51.65 C 145.12 51.61 136.70 51.80 128.29 51.54 C 127.09 59.34 128.06 67.36 127.77 75.25 C 136.36 75.28 144.95 75.24 153.54 75.28 C 153.50 80.65 153.59 86.01 153.46 91.38 C 138.76 91.39 124.05 91.33 109.35 91.41 Z" />
<path fill="#121212" opacity="1.00" d=" M 163.36 49.41 C 163.12 44.85 163.22 40.28 163.27 35.72 C 180.06 35.74 196.86 35.73 213.66 35.72 C 213.67 40.92 213.80 46.13 213.54 51.33 C 205.77 51.29 197.99 51.26 190.22 51.35 C 198.39 60.05 206.31 68.98 214.53 77.64 C 214.53 82.22 214.58 86.80 214.47 91.38 C 197.42 91.38 180.38 91.33 163.34 91.41 C 163.13 86.17 163.25 80.92 163.24 75.68 C 171.37 75.67 179.49 75.69 187.63 75.66 C 179.55 66.90 171.67 57.95 163.36 49.41 Z" />
<path fill="#121212" opacity="1.00" d=" M 223.57 35.74 C 240.55 35.71 257.52 35.72 274.50 35.74 C 274.57 40.71 274.44 45.68 274.61 50.64 L 273.56 50.48 L 273.44 51.38 C 265.91 51.31 258.37 51.10 250.85 51.51 C 259.16 60.21 267.38 69.02 275.35 78.01 C 275.75 82.44 275.41 86.92 275.44 91.36 C 258.16 91.38 240.88 91.39 223.61 91.36 C 223.53 86.14 223.56 80.92 223.57 75.70 C 231.78 75.58 240.00 75.85 248.20 75.54 C 240.25 66.50 231.79 57.91 223.87 48.84 C 223.12 44.57 223.76 40.09 223.57 35.74 Z" />
</g>
<g id="#0b72b7ff">
<path fill="#0b72b7" opacity="1.00" d=" M 47.41 116.31 C 143.93 116.16 240.45 116.27 336.97 116.26 C 333.31 161.24 328.78 206.14 325.15 251.11 C 323.36 266.34 322.61 281.73 320.83 296.95 C 318.16 330.39 314.95 363.76 312.15 397.19 C 311.19 402.15 311.91 407.31 310.41 412.18 C 286.54 418.60 262.77 425.35 238.91 431.78 C 224.31 435.92 209.67 439.87 195.09 444.06 C 193.59 444.48 192.00 444.89 190.46 444.40 C 164.97 437.27 139.49 430.10 113.93 423.22 C 110.29 422.07 106.60 421.13 102.90 420.21 L 102.16 419.79 C 92.59 417.18 82.84 414.98 73.51 411.61 C 71.11 379.37 67.71 347.21 65.22 314.99 C 64.15 310.43 64.92 305.67 63.81 301.12 C 58.63 239.53 52.94 177.93 47.41 116.31 M 192.29 140.26 C 192.25 151.47 192.19 162.68 192.32 173.89 C 190.22 174.09 188.12 174.32 186.02 174.30 C 157.81 174.18 129.61 174.41 101.40 174.18 C 100.05 178.48 102.54 182.70 102.17 187.03 C 101.93 191.03 103.17 194.93 103.06 198.93 C 103.02 202.95 104.78 206.76 104.36 210.81 C 112.21 210.29 120.07 210.61 127.93 210.54 C 149.26 210.68 170.60 210.26 191.93 210.73 C 192.67 222.73 192.06 234.78 192.26 246.81 C 177.95 247.10 163.63 246.97 149.32 246.85 L 149.23 247.49 C 149.89 259.56 151.24 271.58 152.37 283.61 C 165.59 283.64 178.82 283.58 192.04 283.64 C 192.56 302.61 192.04 321.60 192.32 340.57 C 191.76 340.74 190.64 341.07 190.08 341.24 C 177.63 337.67 165.17 334.02 152.55 331.11 C 151.56 328.86 151.56 326.40 151.44 324.00 C 150.67 316.61 150.06 309.21 149.42 301.81 C 137.36 301.80 125.31 301.82 113.25 301.80 C 113.37 312.57 115.05 323.23 115.70 333.97 C 116.80 342.37 116.74 350.94 118.44 359.23 C 122.73 359.88 126.82 361.40 131.02 362.46 C 151.46 368.16 171.87 373.98 192.33 379.59 C 192.20 392.98 192.21 406.38 192.32 419.78 C 220.11 412.10 247.85 404.21 275.64 396.53 C 279.89 395.25 284.30 394.45 288.40 392.69 C 288.39 389.47 288.59 386.25 289.00 383.06 C 296.10 302.12 303.71 221.20 310.71 140.25 C 271.23 140.18 231.76 140.18 192.29 140.26 Z" />
</g>
<g id="#2fa9dcff">
<path fill="#2fa9dc" opacity="1.00" d=" M 192.29 140.26 C 231.76 140.18 271.23 140.18 310.71 140.25 C 303.71 221.20 296.10 302.12 289.00 383.06 C 288.59 386.25 288.39 389.47 288.40 392.69 C 284.30 394.45 279.89 395.25 275.64 396.53 C 247.85 404.21 220.11 412.10 192.32 419.78 C 192.21 406.38 192.20 392.98 192.33 379.59 C 217.13 373.05 241.71 365.59 266.54 359.15 C 267.42 355.16 267.52 351.07 267.91 347.02 C 272.37 297.71 276.71 248.39 281.05 199.08 C 282.14 190.90 282.00 182.58 283.56 174.47 C 281.08 173.96 278.57 173.64 276.04 173.72 C 248.13 173.90 220.22 173.56 192.32 173.89 C 192.19 162.68 192.25 151.47 192.29 140.26 Z" />
<path fill="#2fa9dc" opacity="1.00" d=" M 102.17 187.03 C 102.54 182.70 100.05 178.48 101.40 174.18 C 102.89 178.50 102.21 183.14 102.95 187.59 C 103.68 194.81 104.43 202.03 104.68 209.28 C 105.62 210.77 107.50 210.30 108.98 210.45 C 153.82 210.39 198.67 210.41 243.51 210.57 C 242.06 222.46 241.32 234.42 240.19 246.33 C 239.27 247.76 237.43 247.20 236.02 247.37 C 207.09 247.17 178.16 247.63 149.23 247.49 L 149.32 246.85 C 163.63 246.97 177.95 247.10 192.26 246.81 C 192.06 234.78 192.67 222.73 191.93 210.73 C 170.60 210.26 149.26 210.68 127.93 210.54 C 120.07 210.61 112.21 210.29 104.36 210.81 C 104.78 206.76 103.02 202.95 103.06 198.93 C 103.17 194.93 101.93 191.03 102.17 187.03 Z" />
<path fill="#2fa9dc" opacity="1.00" d=" M 192.04 283.64 C 206.90 283.74 221.75 283.66 236.60 283.68 C 235.72 299.33 234.10 314.96 232.54 330.56 C 220.09 334.17 207.52 337.34 195.05 340.90 C 193.45 341.41 191.74 341.67 190.08 341.24 C 190.64 341.07 191.76 340.74 192.32 340.57 C 192.04 321.60 192.56 302.61 192.04 283.64 Z" />
</g>
</svg>
