<?xml version="1.0" encoding="UTF-8" ?>
<!DOCTYPE svg PUBLIC "-//W3C//DTD SVG 1.1//EN" "http://www.w3.org/Graphics/SVG/1.1/DTD/svg11.dtd">
<svg width="388pt" height="470pt" viewBox="0 0 388 470" version="1.1" xmlns="http://www.w3.org/2000/svg">
<g id="#f5f5f6ff">
<path fill="#f5f5f6" opacity="1.00" d=" M 100.36 182.46 C 160.50 182.48 220.64 182.30 280.78 182.36 C 280.18 194.50 278.85 206.59 277.62 218.68 C 231.80 218.65 185.97 218.69 140.16 218.51 C 140.33 230.85 142.76 243.04 142.75 255.40 C 186.66 255.75 230.57 255.26 274.48 255.49 C 270.90 292.39 268.13 329.36 264.36 366.23 C 245.55 371.52 226.70 376.66 207.86 381.82 C 202.86 383.23 197.86 384.62 192.86 386.02 C 191.10 386.68 189.26 386.14 187.53 385.67 C 173.45 381.61 159.29 377.85 145.19 373.85 C 135.64 371.21 125.97 368.92 116.58 365.73 C 116.70 360.09 115.59 354.55 115.39 348.93 C 114.01 335.81 113.21 322.62 111.72 309.51 C 123.76 309.39 135.80 309.53 147.85 309.44 C 148.91 319.00 149.56 328.60 150.62 338.16 C 161.44 341.01 172.22 344.04 183.05 346.84 C 185.68 347.55 188.31 348.80 191.10 348.45 C 194.14 347.92 197.06 346.90 200.04 346.14 C 201.66 345.69 203.28 345.26 204.90 344.81 C 207.29 344.24 209.66 343.58 212.03 342.93 C 218.13 341.34 224.19 339.59 230.32 338.12 C 230.54 335.77 230.79 333.43 231.28 331.13 C 231.55 327.43 231.45 323.68 232.18 320.02 C 232.83 310.74 234.02 301.52 233.92 292.19 C 219.17 291.96 204.38 292.81 189.68 291.56 C 163.25 291.51 136.82 291.52 110.39 291.55 C 106.72 255.23 103.75 218.82 100.36 182.46 Z" />
</g>
<g id="#050608ff">
<path fill="#050608" opacity="1.00" d=" M 73.52 43.12 C 79.80 42.87 86.08 43.02 92.36 43.18 C 92.29 49.01 92.34 54.84 92.33 60.67 C 97.77 60.68 103.21 60.69 108.64 60.67 C 108.64 54.81 108.66 48.95 108.62 43.09 C 114.83 43.02 121.03 43.04 127.24 43.08 C 127.22 61.23 127.25 79.38 127.22 97.53 C 121.03 97.55 114.84 97.55 108.65 97.53 C 108.64 91.48 108.64 85.43 108.65 79.38 C 103.21 79.35 97.77 79.36 92.34 79.37 C 92.32 85.41 92.32 91.45 92.33 97.49 C 86.07 97.59 79.81 97.54 73.55 97.53 C 73.53 79.39 73.58 61.25 73.52 43.12 Z" />
<path fill="#050608" opacity="1.00" d=" M 134.93 43.08 C 151.82 43.09 168.71 42.94 185.60 43.08 C 185.54 49.15 185.67 55.21 185.50 61.27 C 180.19 61.27 174.87 61.26 169.55 61.28 C 169.55 73.36 169.55 85.44 169.55 97.52 C 163.26 97.53 156.97 97.62 150.69 97.46 C 150.71 85.40 150.69 73.33 150.70 61.27 C 145.53 61.28 140.37 61.24 135.21 61.30 C 134.73 55.24 134.99 49.15 134.93 43.08 Z" />
<path fill="#050608" opacity="1.00" d=" M 193.45 43.08 C 199.97 43.06 206.49 42.97 213.00 43.13 C 216.51 49.51 220.83 55.40 224.17 61.86 C 224.43 61.45 224.96 60.62 225.22 60.20 C 227.17 57.18 229.01 54.09 230.89 51.03 C 232.66 48.50 233.69 45.27 235.97 43.20 C 242.43 42.83 248.93 42.93 255.41 43.16 C 255.33 61.28 255.40 79.39 255.38 97.50 C 249.10 97.57 242.83 97.57 236.56 97.50 C 236.51 89.07 236.69 80.64 236.46 72.21 C 233.12 75.77 231.00 80.23 228.20 84.20 C 227.07 85.87 226.10 87.64 224.99 89.33 C 224.69 89.45 224.09 89.70 223.79 89.83 C 219.75 83.52 215.52 77.35 211.56 71.00 C 211.36 79.84 211.51 88.69 211.46 97.53 C 205.46 97.55 199.47 97.54 193.47 97.54 C 193.44 79.39 193.48 61.23 193.45 43.08 Z" />
<path fill="#050608" opacity="1.00" d=" M 264.33 43.09 C 270.42 42.88 276.52 42.93 282.61 43.12 C 282.59 55.20 282.54 67.28 282.64 79.36 C 291.24 79.39 299.85 79.34 308.45 79.39 C 308.45 85.44 308.45 91.48 308.45 97.52 C 293.75 97.57 279.05 97.53 264.35 97.54 C 264.31 79.39 264.36 61.24 264.33 43.09 Z" />
</g>
<g id="#e75727ff">
<path fill="#e75727" opacity="1.00" d=" M 47.14 122.44 C 142.95 122.46 238.76 122.40 334.56 122.47 C 330.14 172.98 325.36 223.46 321.18 273.99 C 316.61 321.33 312.96 368.78 308.35 416.14 C 285.91 422.46 263.45 428.73 240.96 434.85 C 225.36 439.18 209.73 443.40 194.18 447.88 C 192.35 448.40 190.39 448.85 188.52 448.28 C 150.00 437.42 111.33 427.08 72.85 416.10 C 65.76 333.40 58.34 250.77 50.96 168.09 C 49.80 152.86 47.89 137.69 47.14 122.44 M 100.36 182.46 C 103.75 218.82 106.72 255.23 110.39 291.55 C 136.82 291.52 163.25 291.51 189.68 291.56 C 204.38 292.81 219.17 291.96 233.92 292.19 C 234.02 301.52 232.83 310.74 232.18 320.02 C 231.45 323.68 231.55 327.43 231.28 331.13 C 230.79 333.43 230.54 335.77 230.32 338.12 C 224.19 339.59 218.13 341.34 212.03 342.93 C 209.66 343.58 207.29 344.24 204.90 344.81 C 203.28 345.26 201.66 345.69 200.04 346.14 C 197.06 346.90 194.14 347.92 191.10 348.45 C 188.31 348.80 185.68 347.55 183.05 346.84 C 172.22 344.04 161.44 341.01 150.62 338.16 C 149.56 328.60 148.91 319.00 147.85 309.44 C 135.80 309.53 123.76 309.39 111.72 309.51 C 113.21 322.62 114.01 335.81 115.39 348.93 C 115.59 354.55 116.70 360.09 116.58 365.73 C 125.97 368.92 135.64 371.21 145.19 373.85 C 159.29 377.85 173.45 381.61 187.53 385.67 C 189.26 386.14 191.10 386.68 192.86 386.02 C 197.86 384.62 202.86 383.23 207.86 381.82 C 226.70 376.66 245.55 371.52 264.36 366.23 C 268.13 329.36 270.90 292.39 274.48 255.49 C 230.57 255.26 186.66 255.75 142.75 255.40 C 142.76 243.04 140.33 230.85 140.16 218.51 C 185.97 218.69 231.80 218.65 277.62 218.68 C 278.85 206.59 280.18 194.50 280.78 182.36 C 220.64 182.30 160.50 182.48 100.36 182.46 Z" />
</g>
</svg>
