<?xml version="1.0" encoding="UTF-8" ?>
<!DOCTYPE svg PUBLIC "-//W3C//DTD SVG 1.1//EN" "http://www.w3.org/Graphics/SVG/1.1/DTD/svg11.dtd">
<svg width="383pt" height="489pt" viewBox="0 0 383 489" version="1.1" xmlns="http://www.w3.org/2000/svg">
<g id="#f6f6f6ff">
</g>
<g id="#121212ff">
<path fill="#121212" opacity="1.00" d=" M 192.46 41.51 C 209.26 41.50 226.06 41.49 242.85 41.51 C 242.87 46.56 242.88 51.61 242.84 56.66 C 235.21 56.66 227.58 56.62 219.95 56.69 C 221.92 60.62 225.57 63.27 228.35 66.59 C 233.26 72.32 238.66 77.62 243.60 83.31 C 244.14 87.69 243.71 92.15 243.80 96.56 C 226.69 96.52 209.59 96.55 192.48 96.54 C 192.47 91.50 192.47 86.46 192.48 81.43 C 200.50 81.38 208.53 81.50 216.55 81.36 C 209.15 72.06 200.60 63.69 192.59 54.92 C 192.38 50.45 192.51 45.98 192.46 41.51 Z" />
</g>
<g id="#050608ff">
<path fill="#050608" opacity="1.00" d=" M 164.66 41.56 C 170.95 41.45 177.25 41.50 183.55 41.52 C 183.56 59.85 183.55 78.18 183.55 96.51 C 168.76 96.57 153.97 96.53 139.17 96.53 C 139.16 90.44 139.16 84.34 139.17 78.25 C 147.64 78.27 156.11 78.22 164.58 78.28 C 164.76 66.04 164.62 53.80 164.66 41.56 Z" />
</g>
<g id="#e3a127ff">
<path fill="#e3a127" opacity="1.00" d=" M 47.25 122.17 C 143.14 122.08 239.03 122.15 334.92 122.13 C 335.25 134.14 333.45 146.02 332.59 157.96 C 328.49 202.63 324.70 247.31 320.61 291.96 C 320.51 298.65 318.79 305.25 319.53 311.96 C 319.23 310.98 318.95 310.01 318.66 309.04 C 318.65 313.03 318.70 317.05 318.14 321.02 C 315.02 353.04 312.79 385.15 309.33 417.13 C 290.00 421.89 270.96 427.81 251.69 432.85 C 232.10 438.19 212.56 443.69 193.01 449.15 C 191.36 449.75 189.68 449.15 188.08 448.74 C 150.37 438.05 112.54 427.80 74.79 417.27 C 73.15 417.17 73.49 415.13 73.13 414.06 C 64.49 316.76 55.95 219.48 47.25 122.17 M 191.26 145.33 C 191.13 149.70 191.14 154.08 191.35 158.44 C 169.89 158.90 148.43 158.43 126.97 158.66 C 125.63 158.66 124.52 159.20 123.66 160.26 L 123.60 160.26 C 123.54 170.20 121.71 180.02 121.07 189.92 C 118.27 223.33 114.83 256.69 112.31 290.12 C 112.30 290.50 112.27 291.26 112.25 291.64 C 138.56 291.62 164.86 291.52 191.17 291.69 C 191.20 310.34 191.16 328.98 191.17 347.63 C 186.03 347.26 181.23 345.08 176.21 344.00 C 167.87 342.27 159.95 339.07 151.64 337.21 C 151.18 328.75 150.11 320.34 149.40 311.91 C 149.41 310.73 148.78 309.73 148.19 308.78 C 138.77 308.54 129.35 308.81 119.94 308.67 C 117.33 308.67 114.68 308.49 112.12 309.10 C 111.08 312.75 112.37 316.64 113.04 320.28 C 114.00 335.58 115.94 350.81 116.79 366.11 C 139.87 372.28 162.80 378.99 185.86 385.23 C 186.96 385.62 188.08 385.98 189.21 386.33 C 189.86 386.88 190.52 387.44 191.19 388.00 C 191.29 399.99 190.91 411.98 191.32 423.97 C 194.47 423.29 197.59 422.51 200.68 421.63 C 226.97 414.24 253.25 406.84 279.60 399.72 C 282.27 398.68 287.06 399.43 287.39 395.58 C 287.97 388.04 288.91 380.53 289.00 372.95 C 295.30 300.96 301.92 228.99 308.31 157.01 C 308.76 153.13 309.07 149.23 308.94 145.32 C 269.71 145.22 230.49 145.25 191.26 145.33 Z" />
<path fill="#e3a127" opacity="1.00" d=" M 155.93 198.83 C 156.24 198.64 156.86 198.28 157.17 198.09 C 157.35 198.36 157.73 198.90 157.91 199.17 C 168.90 198.23 179.97 198.53 190.98 198.80 C 191.43 217.39 191.02 235.99 191.22 254.58 C 178.23 254.65 165.24 254.58 152.24 254.62 C 152.44 242.36 154.41 230.22 155.12 217.99 C 155.26 211.59 157.47 205.19 155.93 198.83 Z" />
</g>
<g id="#f0bf25ff">
<path fill="#f0bf25" opacity="1.00" d=" M 191.26 145.33 C 230.49 145.25 269.71 145.22 308.94 145.32 C 309.07 149.23 308.76 153.13 308.31 157.01 C 301.92 228.99 295.30 300.96 289.00 372.95 C 288.91 380.53 287.97 388.04 287.39 395.58 C 287.06 399.43 282.27 398.68 279.60 399.72 C 253.25 406.84 226.97 414.24 200.68 421.63 C 197.59 422.51 194.47 423.29 191.32 423.97 C 190.91 411.98 191.29 399.99 191.19 388.00 C 190.52 387.44 189.86 386.88 189.21 386.33 C 193.63 386.58 197.78 384.81 201.98 383.71 C 223.04 377.81 244.10 371.89 265.20 366.12 C 268.03 333.75 271.00 301.40 273.90 269.03 C 274.52 264.46 274.75 259.84 274.72 255.23 L 274.73 254.53 C 246.89 254.59 219.06 254.50 191.22 254.58 C 191.02 235.99 191.43 217.39 190.98 198.80 C 179.97 198.53 168.90 198.23 157.91 199.17 C 157.73 198.90 157.35 198.36 157.17 198.09 C 164.45 197.50 171.75 197.61 179.05 197.51 C 190.37 197.45 201.72 197.12 212.99 198.32 C 220.44 198.26 227.82 199.45 235.26 199.68 C 236.43 212.00 237.45 224.33 238.60 236.66 C 240.29 238.34 242.79 238.18 244.99 238.24 C 251.31 238.20 257.64 238.07 263.96 238.20 C 267.77 238.22 271.66 238.48 275.39 237.51 C 276.43 227.27 273.72 217.16 273.44 206.95 C 273.21 199.92 271.68 193.02 271.46 186.00 C 271.24 178.98 269.81 172.07 269.62 165.05 C 269.46 163.12 269.57 161.12 268.87 159.29 C 267.65 158.06 265.61 158.59 264.04 158.34 C 239.81 158.46 215.58 158.26 191.35 158.44 C 191.14 154.08 191.13 149.70 191.26 145.33 Z" />
<path fill="#f0bf25" opacity="1.00" d=" M 191.17 291.69 C 205.71 291.95 220.27 291.42 234.81 291.97 C 234.18 300.86 232.82 309.69 232.49 318.61 C 231.21 324.67 230.61 330.84 230.23 337.02 C 217.21 340.55 204.34 344.69 191.17 347.63 C 191.16 328.98 191.20 310.34 191.17 291.69 Z" />
</g>
<g id="#f0d27aff">
<path fill="#f0d27a" opacity="1.00" d=" M 191.35 158.44 C 215.58 158.26 239.81 158.46 264.04 158.34 C 265.61 158.59 267.65 158.06 268.87 159.29 C 269.57 161.12 269.46 163.12 269.62 165.05 C 269.81 172.07 271.24 178.98 271.46 186.00 C 271.68 193.02 273.21 199.92 273.44 206.95 C 273.72 217.16 276.43 227.27 275.39 237.51 C 271.66 238.48 267.77 238.22 263.96 238.20 C 257.64 238.07 251.31 238.20 244.99 238.24 C 242.79 238.18 240.29 238.34 238.60 236.66 C 250.49 236.03 262.43 237.03 274.30 236.18 C 274.85 232.44 273.95 228.71 273.66 224.98 C 272.05 204.62 269.86 184.30 268.37 163.93 C 268.07 162.60 268.18 160.94 267.07 159.98 C 263.41 159.47 259.71 159.76 256.03 159.73 C 234.62 159.78 213.21 159.70 191.79 159.78 C 172.20 159.78 152.60 159.81 133.00 159.75 C 129.88 159.78 126.77 160.04 123.66 160.26 C 124.52 159.20 125.63 158.66 126.97 158.66 C 148.43 158.43 169.89 158.90 191.35 158.44 Z" />
</g>
<g id="#ebeceeff">
<path fill="#ebecee" opacity="1.00" d=" M 123.60 160.26 L 123.66 160.26 C 126.77 160.04 129.88 159.78 133.00 159.75 C 152.60 159.81 172.20 159.78 191.79 159.78 C 191.79 171.93 191.75 184.09 191.78 196.24 C 186.20 196.57 180.61 196.48 175.02 196.38 C 169.27 196.18 163.54 197.93 157.81 196.76 C 157.65 197.10 157.33 197.76 157.17 198.09 C 156.86 198.28 156.24 198.64 155.93 198.83 C 157.47 205.19 155.26 211.59 155.12 217.99 C 154.41 230.22 152.44 242.36 152.24 254.62 C 165.24 254.58 178.23 254.65 191.22 254.58 C 219.06 254.50 246.89 254.59 274.73 254.53 L 274.72 255.23 C 246.88 255.51 219.03 255.40 191.19 255.33 C 190.74 266.97 191.13 278.63 190.95 290.27 C 164.74 290.10 138.52 290.41 112.31 290.12 C 114.83 256.69 118.27 223.33 121.07 189.92 C 121.71 180.02 123.54 170.20 123.60 160.26 Z" />
<path fill="#ebecee" opacity="1.00" d=" M 113.21 310.17 C 124.88 309.76 136.58 309.83 148.25 310.25 C 148.39 317.50 149.19 324.71 149.66 331.95 C 149.87 334.00 150.05 336.14 151.01 338.00 C 152.37 339.12 154.16 339.52 155.81 340.03 C 165.04 342.40 174.29 344.71 183.47 347.31 C 186.11 348.05 188.81 348.64 191.55 348.91 C 190.11 360.90 191.56 373.00 190.92 385.03 C 189.23 385.11 187.54 385.21 185.86 385.23 C 162.80 378.99 139.87 372.28 116.79 366.11 C 115.94 350.81 114.00 335.58 113.04 320.28 C 113.05 316.91 113.18 313.54 113.21 310.17 Z" />
</g>
<g id="#fefefeff">
<path fill="#fefefe" opacity="1.00" d=" M 191.79 159.78 C 213.21 159.70 234.62 159.78 256.03 159.73 C 259.71 159.76 263.41 159.47 267.07 159.98 C 268.18 160.94 268.07 162.60 268.37 163.93 C 269.86 184.30 272.05 204.62 273.66 224.98 C 273.95 228.71 274.85 232.44 274.30 236.18 C 262.43 237.03 250.49 236.03 238.60 236.66 C 237.45 224.33 236.43 212.00 235.26 199.68 C 227.82 199.45 220.44 198.26 212.99 198.32 C 201.72 197.12 190.37 197.45 179.05 197.51 C 171.75 197.61 164.45 197.50 157.17 198.09 C 157.33 197.76 157.65 197.10 157.81 196.76 C 163.54 197.93 169.27 196.18 175.02 196.38 C 180.61 196.48 186.20 196.57 191.78 196.24 C 191.75 184.09 191.79 171.93 191.79 159.78 Z" />
<path fill="#fefefe" opacity="1.00" d=" M 191.19 255.33 C 219.03 255.40 246.88 255.51 274.72 255.23 C 274.75 259.84 274.52 264.46 273.90 269.03 C 271.00 301.40 268.03 333.75 265.20 366.12 C 244.10 371.89 223.04 377.81 201.98 383.71 C 197.78 384.81 193.63 386.58 189.21 386.33 C 188.08 385.98 186.96 385.62 185.86 385.23 C 187.54 385.21 189.23 385.11 190.92 385.03 C 191.56 373.00 190.11 360.90 191.55 348.91 C 204.84 345.66 218.03 341.95 231.20 338.27 C 233.01 333.76 232.94 328.80 233.33 324.03 C 233.70 312.83 236.09 301.75 235.55 290.51 C 220.69 290.18 205.81 290.62 190.95 290.27 C 191.13 278.63 190.74 266.97 191.19 255.33 Z" />
</g>
<g id="#f1daa0ff">
<path fill="#f1daa0" opacity="1.00" d=" M 112.31 290.12 C 138.52 290.41 164.74 290.10 190.95 290.27 C 205.81 290.62 220.69 290.18 235.55 290.51 C 236.09 301.75 233.70 312.83 233.33 324.03 C 232.94 328.80 233.01 333.76 231.20 338.27 C 231.09 331.68 232.93 325.22 232.49 318.61 C 232.82 309.69 234.18 300.86 234.81 291.97 C 220.27 291.42 205.71 291.95 191.17 291.69 C 164.86 291.52 138.56 291.62 112.25 291.64 C 112.27 291.26 112.30 290.50 112.31 290.12 Z" />
</g>
<g id="#f9dba4ff">
<path fill="#f9dba4" opacity="1.00" d=" M 112.12 309.10 C 114.68 308.49 117.33 308.67 119.94 308.67 C 129.35 308.81 138.77 308.54 148.19 308.78 L 148.25 310.25 C 136.58 309.83 124.88 309.76 113.21 310.17 C 113.18 313.54 113.05 316.91 113.04 320.28 C 112.37 316.64 111.08 312.75 112.12 309.10 Z" />
</g>
<g id="#eaca7eff">
<path fill="#eaca7e" opacity="1.00" d=" M 148.19 308.78 C 148.78 309.73 149.41 310.73 149.40 311.91 C 150.11 320.34 151.18 328.75 151.64 337.21 C 159.95 339.07 167.87 342.27 176.21 344.00 C 181.23 345.08 186.03 347.26 191.17 347.63 C 204.34 344.69 217.21 340.55 230.23 337.02 C 230.61 330.84 231.21 324.67 232.49 318.61 C 232.93 325.22 231.09 331.68 231.20 338.27 C 218.03 341.95 204.84 345.66 191.55 348.91 C 188.81 348.64 186.11 348.05 183.47 347.31 C 174.29 344.71 165.04 342.40 155.81 340.03 C 154.16 339.52 152.37 339.12 151.01 338.00 C 150.05 336.14 149.87 334.00 149.66 331.95 C 149.19 324.71 148.39 317.50 148.25 310.25 L 148.19 308.78 Z" />
</g>
</svg>
